name Walk5.mot
datacolumns 19
datarows 15
range 1.85700000 1.87100000
endheader

                time	   L_ground_force_vx	   L_ground_force_vy	   L_ground_force_vz	   L_ground_force_px	   L_ground_force_py	   L_ground_force_pz	   R_ground_force_vx	   R_ground_force_vy	   R_ground_force_vz	   R_ground_force_px	   R_ground_force_py	   R_ground_force_pz	   L_ground_torque_x	   L_ground_torque_y	   L_ground_torque_z	   R_ground_torque_x	   R_ground_torque_y	   R_ground_torque_z	
          1.85700000	          0.00000000	          0.00000000	          0.00000000	          0.00000000	          0.00000000	          0.00000000	         17.64929078	         69.60913578	          3.69466039	          0.23580648	          0.00000000	          0.05811666	          0.00000000	          0.00000000	          0.00000000	          0.00000000	         -5.36988560	          0.00000000	
          1.85800000	          0.00000000	          0.00000000	          0.00000000	          0.00000000	          0.00000000	          0.00000000	         16.57698284	         65.18237695	          3.70997904	          0.23158107	          0.00000000	          0.05707463	          0.00000000	          0.00000000	          0.00000000	          0.00000000	         -5.12605923	          0.00000000	
          1.85900000	          0.00000000	          0.00000000	          0.00000000	          0.00000000	          0.00000000	          0.00000000	         15.53499959	         60.91455312	          3.71340009	          0.22715283	          0.00000000	          0.05598363	          0.00000000	          0.00000000	          0.00000000	          0.00000000	         -4.88589941	          0.00000000	
          1.86000000	          0.00000000	          0.00000000	          0.00000000	          0.00000000	          0.00000000	          0.00000000	         14.52421135	         56.80425697	          3.70548860	          0.22252365	          0.00000000	          0.05484388	          0.00000000	          0.00000000	          0.00000000	          0.00000000	         -4.64967862	          0.00000000	
          1.86100000	          0.00000000	          0.00000000	          0.00000000	          0.00000000	          0.00000000	          0.00000000	         13.54538849	         52.84991622	          3.68682384	          0.21769657	          0.00000000	          0.05365585	          0.00000000	          0.00000000	          0.00000000	          0.00000000	         -4.41765687	          0.00000000	
          1.86200000	          0.00000000	          0.00000000	          0.00000000	          0.00000000	          0.00000000	          0.00000000	         12.59919710	         49.04981175	          3.65799912	          0.21267584	          0.00000000	          0.05242029	          0.00000000	          0.00000000	          0.00000000	          0.00000000	         -4.19008124	          0.00000000	
          1.86300000	          0.00000000	          0.00000000	          0.00000000	          0.00000000	          0.00000000	          0.00000000	         11.68619606	         45.40209497	          3.61962157	          0.20746704	          0.00000000	          0.05113831	          0.00000000	          0.00000000	          0.00000000	          0.00000000	         -3.96718574	          0.00000000	
          1.86400000	          0.00000000	          0.00000000	          0.00000000	          0.00000000	          0.00000000	          0.00000000	         10.80683502	         41.90480398	          3.57231172	          0.20207719	          0.00000000	          0.04981140	          0.00000000	          0.00000000	          0.00000000	          0.00000000	         -3.74919126	          0.00000000	
          1.86500000	          0.00000000	          0.00000000	          0.00000000	          0.00000000	          0.00000000	          0.00000000	          9.96145316	         38.55587882	          3.51670257	          0.19651484	          0.00000000	          0.04844151	          0.00000000	          0.00000000	          0.00000000	          0.00000000	         -3.53630574	          0.00000000	
          1.86600000	          0.00000000	          0.00000000	          0.00000000	          0.00000000	          0.00000000	          0.00000000	          9.15027846	         35.35317609	          3.45343836	          0.19079013	          0.00000000	          0.04703103	          0.00000000	         -0.00000000	          0.00000000	          0.00000000	         -3.32872440	          0.00000000	
          1.86700000	          0.00000000	          0.00000000	         -0.00000000	          0.00000000	          0.00000000	          0.00000000	          8.37342754	         32.29448317	          3.38317277	          0.18491494	          0.00000000	          0.04558287	          0.00000000	         -0.00000000	          0.00000000	          0.00000000	         -3.12663023	          0.00000000	
          1.86800000	          0.00000000	          0.00000000	         -0.00000000	          0.00000000	          0.00000000	          0.00000000	          7.63090576	         29.37753193	          3.30656693	          0.17890293	          0.00000000	          0.04410044	          0.00000000	         -0.00000000	          0.00000000	          0.00000000	         -2.93019440	          0.00000000	
          1.86900000	          0.00000000	          0.00000000	         -0.00000000	         -0.00000000	          0.00000000	          0.00000000	          6.92260780	         26.60001095	          3.22428701	          0.17276972	          0.00000000	          0.04258770	          0.00000000	         -0.00000000	          0.00000000	          0.00000000	         -2.73957660	          0.00000000	
          1.87000000	          0.00000000	          0.00000000	         -0.00000000	         -0.00000000	          0.00000000	         -0.00000000	          6.24831881	         23.95957388	          3.13700131	          0.16653301	          0.00000000	          0.04104916	          0.00000000	         -0.00000000	          0.00000000	          0.00000000	         -2.55492502	          0.00000000	
          1.87100000	          0.00000000	          0.00000000	         -0.00000000	         -0.00000000	          0.00000000	         -0.00000000	          5.60771662	         21.45384076	          3.04537641	          0.16021271	          0.00000000	          0.03948989	          0.00000000	         -0.00000000	          0.00000000	          0.00000000	         -2.37637555	          0.00000000	
